# 3ds Max Wavefront OBJ Exporter v0.97b - (c)2007 guruware
# File Created: 31.03.2022 11:14:05

mtllib Hex.mtl

#
# object Hex
#

v  -0.5000 0.5000 0.8660
v  0.5000 0.5000 0.8660
v  1.0000 0.5000 -0.0000
v  0.5000 0.5000 -0.8660
v  -0.5000 0.5000 -0.8660
v  -1.0000 0.5000 -0.0000
v  -1.0000 -0.5000 -0.0000
v  -0.5000 -0.5000 -0.8660
v  0.5000 -0.5000 -0.8660
v  -0.5000 -0.5000 0.8660
v  1.0000 -0.5000 -0.0000
v  0.5000 -0.5000 0.8660
# 12 vertices

vn 0.0000 1.0000 -0.0000
vn 0.0000 -1.0000 -0.0000
vn 0.0000 0.0000 1.0000
vn 0.8660 0.0000 0.5000
vn 1.0000 0.0000 -0.0000
vn 0.0000 0.0000 -1.0000
vn -0.8660 0.0000 -0.5000
vn -1.0000 0.0000 -0.0000
vn -0.8660 0.0000 0.5000
vn 0.8660 0.0000 -0.5000
# 10 vertex normals

vt 1.0000 0.0000 0.0000
vt 0.0000 0.0000 0.0000
vt 0.0000 0.5147 0.0000
vt 0.0000 1.0000 0.0000
vt 1.0000 1.0000 0.0000
vt 1.0000 0.5218 0.0000
vt 0.0000 0.5779 0.0000
vt 1.0000 0.5529 0.0000
vt 0.5529 1.0000 0.0000
vt 0.5147 0.0000 0.0000
vt 0.4221 1.0000 0.0000
vt 0.4782 0.0000 0.0000
# 12 texture coords

g Hex
usemtl Default
s 2
f 1/1/1 2/2/1 3/3/1 
f 1/1/1 3/3/1 4/4/1 
f 4/4/1 5/5/1 6/6/1 
f 1/1/1 4/4/1 6/6/1 
s 4
f 7/7/2 8/4/2 9/5/2 
f 10/2/2 7/7/2 9/5/2 
f 10/2/2 9/5/2 11/8/2 
f 10/2/2 11/8/2 12/1/2 
s 8
f 1/2/3 10/4/3 12/5/3 
f 12/5/3 2/1/3 1/2/3 
s 16
f 12/4/4 11/9/5 3/10/5 
f 3/10/5 2/2/4 12/4/4 
s 32
f 4/2/6 9/4/6 8/5/6 
f 8/5/6 5/1/6 4/2/6 
s 64
f 5/2/7 8/4/7 7/11/8 
f 7/11/8 6/12/8 5/2/7 
f 10/5/9 1/1/9 6/12/8 
f 7/11/8 10/5/9 6/12/8 
s 16
f 11/9/5 9/5/10 4/1/10 
f 4/1/10 3/10/5 11/9/5 
# 20 faces

